/* XPM */
static char *_fdaae6817f548f8c124ff20929d6b54yhxKnhQF9708Wznl[] = {
/* columns rows colors chars-per-pixel */
"16 16 174 2 ",
"   c None",
".  c #A9212C",
"X  c #B3272D",
"o  c #B5252E",
"O  c #B4272E",
"+  c #B72430",
"@  c #BD2430",
"#  c #BE2430",
"$  c #BF2432",
"%  c #B42D30",
"&  c #9B4930",
"*  c #A96529",
"=  c #AB6E2A",
"-  c #A46235",
";  c #CC4029",
":  c #CE4228",
">  c #D84628",
",  c #D94728",
"<  c #DF4829",
"1  c #B84549",
"2  c #BB696C",
"3  c #B26F71",
"4  c #DA5946",
"5  c #D86151",
"6  c #CBA935",
"7  c #CCA834",
"8  c #C9A23E",
"9  c #C9A43F",
"0  c #DDBE34",
"q  c #E1C231",
"w  c #AD9B77",
"e  c #AB9B78",
"r  c #B19E77",
"t  c #BAA16E",
"y  c #DBB04B",
"u  c #D9B04E",
"i  c #C5A45F",
"p  c #CAA75B",
"a  c #DEB353",
"s  c #E7B641",
"d  c #E5B646",
"f  c #EBB941",
"g  c #E8B842",
"h  c #E9BA46",
"j  c #EBBA47",
"k  c #ECB945",
"l  c #ECBA45",
"z  c #EDBA46",
"x  c #ECBA47",
"c  c #EDBB47",
"v  c #EFBC45",
"b  c #EEBD47",
"n  c #E6B848",
"m  c #ECBA48",
"M  c #EDBB49",
"N  c #EDBC4C",
"B  c #EEBD4E",
"V  c #ECBC51",
"C  c #EEBD51",
"Z  c #EFBE50",
"A  c #EEBD52",
"S  c #F0BF51",
"D  c #C0A46B",
"F  c #F7C242",
"G  c #F4C046",
"H  c #F5C146",
"J  c #F4C047",
"K  c #F5C147",
"L  c #F6C147",
"P  c #FAC543",
"I  c #F8C445",
"U  c #FFC843",
"Y  c #F2C04B",
"T  c #F6C348",
"R  c #1286B3",
"E  c #6F8E9E",
"W  c #5B91AF",
"Q  c #4B95BD",
"!  c #6B8EA3",
"~  c #7893A3",
"^  c #7CA4BF",
"/  c #0594C7",
"(  c #039BCF",
")  c #0498CC",
"_  c #0B9CD1",
"`  c #01A0D7",
"'  c #00A1D8",
"]  c #41A1D1",
"[  c #4EA4D1",
"{  c #868D8A",
"}  c #939488",
"|  c #839092",
" . c #BF8A8B",
".. c #A29A83",
"X. c #B0A694",
"o. c #B4AB9A",
"O. c #92A0A6",
"+. c #9BA1A1",
"@. c #8FA6B7",
"#. c #86A7BF",
"$. c #A6ADAF",
"%. c #B2A4A4",
"&. c #BCAAAA",
"*. c #C38789",
"=. c #CA9193",
"-. c #CEA6A6",
";. c #DEA8A3",
":. c #D3ACAC",
">. c #D5B1B1",
",. c #E0ACA6",
"<. c #8BAFC8",
"1. c #ADC5D6",
"2. c #A0C0D8",
"3. c #ACC7DB",
"4. c #B7CDDE",
"5. c #BBCCD9",
"6. c #BCCDDB",
"7. c #C0C5C6",
"8. c #CBCCCB",
"9. c #D7C2C1",
"0. c #D8C4C4",
"q. c #CED1D1",
"w. c #D3D3D2",
"e. c #DCDBDA",
"r. c #DDDDDC",
"t. c #DEDEDC",
"y. c #E6C7C3",
"u. c #E6CBC8",
"i. c #E0D2D0",
"p. c #E2D4D3",
"a. c #E0D7D6",
"s. c #E9D9D8",
"d. c #EADAD9",
"f. c #E9DEDC",
"g. c #EDDFDF",
"h. c #D4DDE4",
"j. c #D9DFE4",
"k. c #DAE0E4",
"l. c #E2E2E1",
"z. c #E6E5E4",
"x. c #E6E6E5",
"c. c #E7E7E5",
"v. c #E7E7E6",
"b. c #EAE2E1",
"n. c #EEE7E5",
"m. c #E6EBEE",
"M. c #EAEAE8",
"N. c #ECECEA",
"B. c #ECECEB",
"V. c #EDEDEB",
"C. c #EBEDEE",
"Z. c #EEEEEC",
"A. c #EEEEED",
"S. c #EFEFED",
"D. c #F1EDEC",
"F. c #F0F0EE",
"G. c #EBEEF0",
"H. c #F2F1F0",
"J. c #F2F2F0",
"K. c #F2F2F1",
"L. c #F3F3F1",
"P. c #F3F3F2",
"I. c #F5F3F1",
"U. c #F4F4F2",
"Y. c #F4F4F3",
"T. c #F6F6F4",
"R. c #F6F6F5",
"E. c #F7F7F5",
"W. c #FAFAF9",
"Q. c #FBFBF9",
"!. c #FDFDFB",
"~. c #FEFEFC",
"^. c #FFFEFC",
"/. c #FFFFFD",
/* pixels */
"          j H U U H x           ",
"      m l r X.~ ! o.w g m       ",
"    b e / 2.~.B.j.~.4.) ..x     ",
"  C } ` ] h.W.e.w.K.m.[ ` | C   ",
"  p ( 1.Q.M.W.%.&.Y.Z.~.5._ D   ",
"C E 3.x.Z.R.Z.*.2 M.R.Z.c.5.W B ",
"Y R 8.K.D.x.~.n.e.!.x.V.R.t.Q n ",
"T ^ l.K.B.F.~.~.F.!.K.Z.Y.t.<.g ",
"q <.~.*.:.9.d.b.p.d.0.>.3 ~.@.I ",
"T { ~.-.$ + O # # O o $ =.~.O.T ",
"S D k.D.1 , < : : < , % b.G.t B ",
"  U +.!.f.5 < < < < 4 i.~.$.F   ",
"  S k 7.!.E.u.;.;.y.L.~.q.a S   ",
"    v - . . . * = . . . & T     ",
"      y j j 8 q 0 9 j j u       ",
"          x b 7 7 x x           "
};
