/* XPM */
static char *_0ba9b75aa8e4f75ca59686b3d7be783a07TubJLbktC8yNr[] = {
/* columns rows colors chars-per-pixel */
"64 64 201 2 ",
"   c None",
".  c #1A1A18",
"X  c #241B19",
"o  c #28281E",
"O  c #38311C",
"+  c #172A34",
"@  c #192D37",
"#  c #262825",
"$  c #383728",
"%  c #253338",
"&  c #303533",
"*  c #501B1E",
"=  c #611B1F",
"-  c #443D1E",
";  c #7A1D24",
":  c #453D25",
">  c #554B2A",
",  c #5B512E",
"<  c #524C2D",
"1  c #635629",
"2  c #635835",
"3  c #7F5324",
"4  c #7A6925",
"5  c #756435",
"6  c #7E6933",
"7  c #6D613C",
"8  c #574C1D",
"9  c #163849",
"0  c #143F53",
"q  c #203845",
"w  c #713D40",
"e  c #14445B",
"r  c #144458",
"t  c #134B64",
"y  c #134D68",
"u  c #13526C",
"i  c #125672",
"p  c #115C7C",
"a  c #31627C",
"s  c #494949",
"d  c gray35",
"f  c #72534C",
"g  c #757476",
"h  c #801D25",
"j  c #8B1F29",
"k  c #8E2726",
"l  c #932C25",
"z  c #962129",
"x  c #9B232B",
"c  c #982929",
"v  c #9A3425",
"b  c #9B2A32",
"n  c #8D3332",
"m  c #A3222C",
"M  c #AC222E",
"N  c #B2232E",
"B  c #BA242F",
"V  c #A33823",
"C  c #B73E25",
"Z  c #A42A33",
"A  c #B52330",
"S  c #BE2431",
"D  c #BE2E38",
"F  c #BD4229",
"G  c #897539",
"H  c #937B37",
"J  c #917329",
"K  c #99582A",
"L  c #CC4428",
"P  c #C54227",
"I  c #DF4829",
"U  c #D54729",
"Y  c #963E42",
"T  c #97474B",
"R  c #935658",
"E  c #AA554A",
"W  c #99696B",
"Q  c #9A797A",
"!  c #8E696A",
"~  c #A76D67",
"^  c #C1474C",
"/  c #C87072",
"(  c #9D833D",
")  c #958226",
"_  c #A5842C",
"`  c #B99F2A",
"'  c #A2863E",
"]  c #AB8A38",
"[  c #B3913C",
"{  c #AB932A",
"}  c #BDA22A",
"|  c #C29C3F",
" . c #C7AB2C",
".. c #D7B92E",
"X. c #CDA936",
"o. c #DCBD32",
"O. c #E8C732",
"+. c #F3CB35",
"@. c #F5D232",
"#. c #F8D531",
"$. c #EDCB2F",
"%. c #998643",
"&. c #A58C43",
"*. c #AA8F42",
"=. c #B49644",
"-. c #BC9B44",
";. c #BA9B47",
":. c #A8807C",
">. c #C5A143",
",. c #CBA544",
"<. c #CEA846",
"1. c #D4AC46",
"2. c #DCB34A",
"3. c #DDB247",
"4. c #EDBD47",
"5. c #ECBE4A",
"6. c #E2B648",
"7. c #EFC14C",
"8. c #F4C247",
"9. c #FCC645",
"0. c #FFC843",
"q. c #F5C349",
"w. c #FBC74A",
"e. c #FEC84A",
"r. c #0F6B8F",
"t. c #12698B",
"y. c #116283",
"u. c #0F6E93",
"i. c #106E94",
"p. c #0E759C",
"a. c #0F7093",
"s. c #107195",
"d. c #307192",
"f. c #0D7BA4",
"g. c #0D7CA7",
"h. c #177DA5",
"j. c #2D7FA6",
"k. c #4D7C95",
"l. c #0B81AE",
"z. c #0B85B3",
"x. c #0A8BBA",
"c. c #088AB9",
"v. c #168AB8",
"b. c #3785AA",
"n. c #2686B0",
"m. c #658193",
"M. c #4A85A6",
"N. c #5586A4",
"B. c #6A8CA3",
"V. c #638BA5",
"C. c #738FA2",
"Z. c #7893A6",
"A. c #0693C4",
"S. c #0B91C2",
"D. c #0696C9",
"F. c #0499CD",
"G. c #039DD3",
"H. c #1091C0",
"J. c #02A0D7",
"K. c #00A1D8",
"L. c #858585",
"P. c #968082",
"I. c #9C9C9C",
"U. c #929292",
"Y. c #8A9092",
"T. c #A48A89",
"R. c #AB9998",
"E. c #869BAA",
"W. c #919EA8",
"Q. c #96A3AC",
"!. c #9AA8B2",
"~. c #ABABAB",
"^. c #A7A5A5",
"/. c #B3ABAA",
"(. c #B3A8A8",
"). c #B5B5B5",
"_. c #BAB3B2",
"`. c #BCBCBC",
"'. c #B6B8B8",
"]. c #AAB1B5",
"[. c #C1BCBB",
"{. c #CD8687",
"}. c #C0C0BF",
"|. c #BEC0C0",
" X c #C4C4C4",
".X c #C9C8C7",
"XX c #CBCBCB",
"oX c #C8C8C8",
"OX c #D4D4D3",
"+X c #D8D8D7",
"@X c #DCDCDB",
"#X c #D7D8D7",
"$X c #EBDAD9",
"%X c #E1E1DF",
"&X c #E4E4E3",
"*X c #E9E9E7",
"=X c #ECECEA",
"-X c #F1F1EF",
";X c #F3F3F2",
":X c #F8F8F7",
">X c #FFFEFC",
/* pixels */
"                                                    0.e.9.w.0.0.0.0.e.w.w.0.                                                    ",
"                                            0.0.0.0.0.0.0.0.0.0.0.0.0.0.0.0.0.0.0.0.                                            ",
"                                        0.0.0.0.0.0.0.0.0.0.0.0.0.0.0.0.0.0.0.0.0.0.0.0.                                        ",
"                                  0.0.0.0.0.0.0.0.0.0.0.0.0.0.0.0.0.0.0.0.0.0.0.0.0.0.0.0.0.0.                                  ",
"                                0.0.0.0.0.9.9.e.0.q.2.X.;.*._ H H _ ] -.>.3.4.0.0.0.0.0.0.0.0.0.                                ",
"                            0.0.0.0.0.0.9.q.<.H , # @ e i t.r.s.s.u.t.p y 9 # < H >.5.0.0.0.0.0.0.0.                            ",
"                          0.0.0.0.0.9.1.G # 0 r.g.d.B.Z.N.A.K.K.J.J.J.n.B.Z.k.f.p.u + 5 | q.0.0.0.0.0.                          ",
"                      0.0.0.0.0.8.-.> 9 s.x.G.H.!.=X>X>X:XoXn.K.J.D.E.=X>X>X:XoXM.J.F.l.y $ ' q.0.0.0.0.0.                      ",
"                    0.0.0.0.9.,.> 0 g.G.K.K.S.'.>X>X>X>X>X>XXXS.J.Z.:X>X>X>X>X>X*XN.G.J.K.A.p $ [ 8.0.0.0.0.                    ",
"                  0.0.0.0.5.G @ g.G.K.K.K.G.W.>X>X>X>X>X>X>X>XZ.v.%X>X>X>X>X>X>X>X+Xv.J.K.K.K.A.i 1 2.0.0.0.0.                  ",
"                0.0.0.0.1.: p F.K.K.K.K.K.H.*X>X>X>X>X>X>X>X>X Xk.>X>X>X>X>X>X>X>X>XE.J.K.K.K.K.J.g.% =.0.0.0.0.                ",
"              0.0.0.0.;.# f.G.G.K.K.K.K.K.B.>X>X>X>X>X>X>X>X>X&XR.>X>X>X>X>X>X>X>X>X.XD.K.K.K.K.J.K.A.e H w.0.0.0.              ",
"              0.9.9.=.+ z.K.K.K.K.K.K.K.G.~.>X>X>X>X:X>X>X>X>X-X'.>X>X>X>X>X>X>X>X>X*Xv.J.J.K.K.K.K.K.F.u G w.0.0.              ",
"            0.0.0.;.+ S.G.K.K.K.K.K.K.K.G.'.>X>X>X>X>X>X=X*X>X;X X>X:X&X>X>X>X>X>X>X;Xb.J.J.K.K.K.K.K.K.G.i H 0.0.0.            ",
"          0.0.9.1.# z.K.K.K.K.K.G.K.G.F.v.|.>X>X>X>X>X*Xs # %X;X}.>Xg . ).>X>X>X>X>X;Xd.A.G.K.K.K.K.K.K.J.G.t *.0.0.0.          ",
"          0.0.4.: p.K.K.K.K.K.K.G.b.Q.XX*X'.>X>X>X>X>X[.L.^.I.*X^.&Xs  Xd >X>X>X>X>X-X X#X'.V.A.K.K.K.K.J.J.D.9 1.0.0.          ",
"        0.0.9.G i G.G.K.K.K.G.b.'.;X>X>X>X).>X>X>X>X>X|.Y./.I.XX^.%Xs OXd >X>X>X>X>XOX=X>X>X:X#XC.A.K.K.K.K.K.z.< 4.0.0.        ",
"      0.0.0.,.+ F.K.K.K.K.S.Q.=X>X>X>X>X>X#X&X>X>X>X>X-Xs & %X).XX$Xm.. `.>X>X>X>X>X'.>X>X>X>X>X>XoXM.J.K.K.K.K.y.&.0.0.0.      ",
"      0.9.w.1 p.K.K.G.A.n.|.>X>X>X>X>X>X>X:X).:X>X>X>X>X:X*X^.n T ! #X=X>X>X>X>X>XoX&X>X>X>X>X>X>X>X=XB.F.D.K.K.D.& 6.0.0.      ",
"      0.0.,.@ F.K.K.G.d.I.#X>X>X>X>X>X>X>X>X:X).%X>X>X>X:XQ A {./ S b OX>X>X>X;X|.@X>X>X>X>X>X>X>X>X=X).g D.K.K.G.s.' 0.0.      ",
"    0.0.e.5 r.G.K.K.H.XX>X&X`.oX:X>X>X>X>X>X>X>X@X|.`.`.U.M / >X>X^ B T `.`.`.oX;X>X>X>X>X>X>X>X%X'.OX:X;XB.K.K.K.D.$ 8.0.0.    ",
"    0.0.6.o A.K.G.G.].>X>X>X>X-X'. X;X>X>X>X>X>X>X>X>X>X(.B ^ $X$XD D n :X>X>X>X>X>X>X>X>X>X#X).#X>X>X>X>X&Xb.K.K.K.i >.0.0.    ",
"  0.0.0.-.e K.K.G.V.:X>X>X>X>X>X>X:XoX'.&X>X>X>X>X>X>X>X_.S S S S S S T :X>X>X>X>X>X>X:X X`.&X>X>X>X>X>X>X>X|.D.K.K.l.G 0.0.0.  ",
"  0.0.0.G s.K.K.H.OX>X+X`.`.}.;X>X>X>X>X#X).#X>X>X>X>X>X%XZ S S S S A ^.>X>X>X>X>X=X X`.;X>X>X>X>XOX`.'.oX;X>XB.K.K.D.$ q.0.0.  ",
"  0.0.w.$ z.K.J.Z.:X'.&X>X>X:X+X>X>X>X>X>X>X&X'.;X>X>X>X>X[.b S S A Q ;X>X>X>X>XoXXX:X>X>X>X>X>X-X&X>X>X:X`.&XXXD.K.K.0 6.0.0.  ",
"  0.0.5.. D.K.F.~.U.~.'.}.XX+X*X;X:X>X>X>X>X>X>X>X>X>X>X>X>X&X/.P.oX:X>X>X>X>X>X>X>X>X>X>X>X:X:X=X%XOX X'.'.L.`.N.K.G.p >.9.0.  ",
"0.0.0.3.+ G.G.n.:X`.>X>X:X;X*X@XOX X`.`.`.`. XoX>X>X>X>X>X>X>X:X X>X>X>X>X>X>X>X&X X}.`.`.|. XoX#X&X=X:X>X>X@X&X].G.K.s.[ 0.0.0.",
"9.0.0.<.0 G.K.E.>X`.>X>X>X>X>X>X>X>X>X>X>X>X:X:X>X>X>X>X>X>X>X:X X>X>X>X>X>X>X>X:X:X>X>X>X>X>X>X>X:X>X>X>X>X&X@XOXA.K.g.' 0.0.0.",
"w.0.0.>.e G.G.`.>X`.>X>X>X>X>X>X>X>X>X>X>X>X>X>X>X>X>X>X>X>X>X:X X>X>X>X>X>X>X>X>X>X>X>X>X>X>X>X>X>X>X>X>X>X X;X-Xg.J.l.%.0.0.w.",
"9.0.9.>.e K.F.OX>X%X+X>X>X>X>X>X>X>X>X;X@XoX'.oX>X>X>X>X>X>X>X:X X>X>X>X>X>X>X>X=X'.}.OX=X:X>X>X>X>X>X>X>X>X'.>X>XN.J.g.( 0.0.e.",
"9.0.0.,.e G.c.&X>X>X|.*X:X-X%XXX`.`.`.oX&X;X>X>X>X>X>X>X>X>X>X:X X>X>X>X>X>X>X>X>X>X:X=XOX`.`.`. XOX=X:X:X'.;X>X>XE.K.g.%.0.0.0.",
"0.0.0.1.9 G.z.=X>X X'.I.L.XX&X;X>X>X>X>X>X>X>X>X>X>X>X>X>X>X>X:X X>X>X>X>X>X>X>X>X>X>X>X>X>X>X>X:X=X#X~.U.~.`.&X>X!.K.p.] 0.0.0.",
"0.0.e.o.+ F.l.-X>X:X>X>X^.Q XX;X>X>X>X>X>X>X>X>X>X>X>X>X>X>X>X:X X>X>X>X>X>X>X>X>X>X>X>X>X>X>X>X>X%X^.w :X>X>X>X>X!.J.r.[ 0.0.0.",
"9.9.9.7.. D.z.-X>X>X>X>X_.S A Y T.`.@X:X>X>X>X>X>X>X>X>X>X>X>X:X X>X>X>X>X>X>X>X>X>X>X>X:X*XXX(.W m S T :X>X>X>X>X!.J.p ,.0.0.9.",
"9.0.9.9.O c.x.*X>X>X>X>X XN S S S S M b R P.R._.}.XXOX@X%X&X&X&X).=X*X%X%XOXOX X`./.T.W n Z A S S S S W >X>X>X>X>XE.K.0 2.0.0.e.",
"w.0.9.9.5 f.S.+X>X>X>X>X%XM S S S S S S S S S S A A M M m m m m m x m m M M N A S S S S S S S S S S S R.>X>X>X>X>XV.G.& q.0.0.0.",
"0.0.0.0.' p G. X>X>X>X>X:XT S S S S S S S S S S S S S S S S S S S S B S S S S S S S S S S S S S S S S  X>X>X>X>X:Xh.x.1 9.0.0.9.",
"0.0.0.0.<.@ J.!.>X>X>X>X>XR.S S S S S S S S S S S S S S S S S S S B S S S S B S S S S S S S S S S S b =X>X>X>X>X&Xx.p.' 0.0.0.0.",
"  0.0.0.7.# x.N.>X>X>X>X>XOXM S S S S S S S S S S S S S S S S S S S S S S S S S S S S S S S S S S S P.>X>X>X>X>X[.G.u 1.0.0.0.  ",
"  0.0.0.0.6 t.x.&X>X>X>X>X:XW A D S S S S m c v V V V c m B S S S S S M z l V V V c x S S S S S S A OX>X>X>X>X>XE.D.$ q.0.0.0.  ",
"  0.0.0.0.>.9 F.'.>X>X>X>X>XoXM S S S S z C I I I I I I L V z S S M l C I I I I I I L l N S S S S Q >X>X>X>X>X-Xb.f.H 0.0.0.0.  ",
"  0.0.0.0.q.: l.V.:X>X>X>X>X>XQ S S S z L I I I I I I I I I L k k C I I I I I I I I I I l B S S Z @X>X>X>X>X>X|.D.9 3.0.0.0.0.  ",
"    0.0.0.0.*.t S.OX>X>X>X>X>X&XY S S v I I I I I I I I I I I I U I I I I I I I I I I I L x S N ~.>X>X>X>X>X>XB.g.5 e.0.0.0.    ",
"    0.0.0.9.5.$ l.E.>X>X>X>X>X>XXXN M C I I I I I I I I I I I I I I I I I I I I I I I I I c A P.:X>X>X>X>X>XOXx.e <.9.0.0.0.    ",
"      0.0.0.+.*.e x.+X>X>X>X>X>X>X'.k P I I I I I I I I I I I I I I I I I I I I I I I I I z W ;X>X>X>X>X>X:XC.g.5 0.0.0.0.      ",
"      0.0.0.9.q.< p.C.:X>X>X>X>X>X>X'.V I I I I I I I I I I I I I I I I I I I I I I I I U g -X>X>X>X>X>X>X Xx.q 2.0.0.0.0.      ",
"      0.0.0.9.0.<.+ z. X>X>X>X>X>X>X>XXXE I I I I I I I I I I I I I I I I I I I I I I L R.;X>X>X>X>X>X>X-XN.y.' 0.0.0.0.0.      ",
"        0.0.0.0.9.H t j.=X>X>X>X>X>X>X>X=XT.P I I I I I I I I I I I I I I I I I I I K XX:X>X>X>X>X>X>X>XQ.f., q.0.0.0.0.        ",
"          0.0.0.0.8., t.C.>X>X>X>X>X>X>X>X>XOXQ P I I I I I I I I I I I I I I L E _.;X>X>X>X>X>X>X>X>XXXh.& 6.0.0.0.0.          ",
"          0.0.0.0.0.3.$ a.].>X>X>X>X>X>X>X>X>X>X&X_.~ C L U I I I I I L P K R.XX:X>X>X>X>X>X>X>X>X>X*Xk.0 -.0.0.0.0.0.          ",
"            0.0.0.0.0.<.# t.XX>X>X>X>X>X>X>X>X>X>X>X>X=X#X}._./.(./.`.XX&X>X>X>X>X>X>X>X>X>X>X>X>X-Xm.y &.9.0.0.0.0.            ",
"              0.0.0.0.0.-.+ a OX;X-X-X;X;X;X-X;X-X-X-X-X-X-X-X-X-X;X-X;X-X-X-X-X-X;X;X-X;X;X;X;X=XC.t H 9.0.0.0.0.              ",
"              0.0.0.0.0.6.X k x b b b b b b b b b b b b b b b b b b b b b b b b b b b b c b c Z c x * ;.0.0.0.0.0.              ",
"                0.0.0.0.=.= S S S S S S S S S S S S S S S S m K K v A S S S S S S S S S S S S S S S z 6 0.0.0.0.                ",
"                  0.0.0.-.* S S S S S S S S S S S S S S A J O.@.@.$.` b B S S S S S S S S S S S S S z G 0.0.0.                  ",
"                    0.0.4.$ ; ; h h h h ; h h h ; h h h 3 { ` ` } } } J n h h h h h h ; h h h h h h * X.0.0.                    ",
"                      0.0.6.&.&.&.&.&.&.&.&.&.&.H H 8 ) o. .} } ` } } .. .o G ( &.&.&.&.&.&.&.&.&.&.<.0.0.                      ",
"                          0.0.0.0.0.0.0.0.0.0.0.e.+.=.. o.O.$.@.$.@.@.O.) G 9.0.0.0.0.0.0.0.0.0.0.0.9.                          ",
"                            0.0.0.0.0.0.0.0.0.0.9.9.3.. @.@.#.) 2 o.#.#.{ =.0.0.0.0.0.0.0.0.0.0.0.0.                            ",
"                                0.0.0.0.0.0.0.0.0.0.7.# ..@.@.7 d  .#.#.4 1.0.0.0.0.0.0.0.0.0.0.                                ",
"                                  0.0.0.0.0.0.0.0.0.0.H 4 #.#.o.{ #.#. .> w.0.0.0.0.0.0.0.0.0.                                  ",
"                                        0.0.0.0.0.0.0.5.< J $.@.} #. .- X.0.0.0.0.0.0.0.                                        ",
"                                            0.0.0.0.0.0.5.G o 4 1 8 2 1.0.0.0.0.0.0.                                            ",
"                                                    0.0.9.e.6.X.| 3.w.0.9.0.                                                    "
};
