/* XPM */
static char *_490a45375124ad6c2464f177aebfb12fQMAugKLKNrTdgBJ[] = {
/* columns rows colors chars-per-pixel */
"32 32 174 2 ",
"   c None",
".  c #7C4D25",
"X  c #386278",
"o  c #78725D",
"O  c #4D6D7D",
"+  c #57707C",
"@  c #606D6F",
"#  c #69716F",
"$  c #797766",
"%  c #7B7E72",
"&  c #AD2B2B",
"*  c #B2232E",
"=  c #B8242F",
"-  c #AF3229",
";  c #BF3D27",
":  c #BC3B28",
">  c #B1312A",
",  c #B62431",
"<  c #BE2431",
"1  c #B42D37",
"2  c #AC373E",
"3  c #C03F27",
"4  c #8F522F",
"5  c #8C5D33",
"6  c #B3402F",
"7  c #B25A2E",
"8  c #8D6227",
"9  c #946736",
"0  c #946836",
"q  c #967836",
"w  c #C54026",
"e  c #C94228",
"r  c #DA4729",
"t  c #DF4829",
"y  c #D64729",
"u  c #D34C33",
"i  c #AF3C43",
"p  c #AF464B",
"a  c #826C43",
"s  c #887C5F",
"d  c #B67A7C",
"f  c #AE797A",
"g  c #C97471",
"h  c #9F8834",
"j  c #B99D2A",
"k  c #A18734",
"l  c #A5873D",
"z  c #B9953B",
"x  c #AD9528",
"c  c #BBA02A",
"v  c #BCA336",
"b  c #C49D3D",
"n  c #C89F3E",
"m  c #C99B2D",
"M  c #CDA22E",
"N  c #C9A23F",
"B  c #D9AB3B",
"V  c #D4A83E",
"C  c #D6B834",
"Z  c #D8BA2C",
"A  c #EECC2F",
"S  c #E7C631",
"D  c #F0CE31",
"F  c #9B8145",
"G  c #9A8454",
"H  c #A98C49",
"J  c #B69546",
"K  c #89826A",
"L  c #C39D42",
"P  c #D5AA41",
"I  c #D9AD41",
"U  c #DDAF4A",
"Y  c #D1A740",
"T  c #DEB142",
"R  c #CFA755",
"E  c #D1A955",
"W  c #D0A752",
"Q  c #DEB255",
"!  c #E5B542",
"~  c #ECBB44",
"^  c #E5B64B",
"/  c #E9B94E",
"(  c #F2BE44",
")  c #E7B956",
"_  c #CA867F",
"`  c #F5C245",
"'  c #FCC644",
"]  c #FFC843",
"[  c #F6C24A",
"{  c #FAC549",
"}  c #F5C253",
"|  c #1D6C8E",
" . c #0E729A",
".. c #1F789E",
"X. c #3C748F",
"o. c #2A7397",
"O. c #357696",
"+. c #0C7BA5",
"@. c #0D77A0",
"#. c #157DA6",
"$. c #466C80",
"%. c #587486",
"&. c #547B93",
"*. c #447FA0",
"=. c #997D83",
"-. c #CC7E80",
";. c #0B80AC",
":. c #088BBB",
">. c #0C87B4",
",. c #4A8CB1",
"<. c #5D97BA",
"1. c #6E9FBE",
"2. c #7B9FB7",
"3. c #0691C3",
"4. c #0699CD",
"5. c #1899CB",
"6. c #029ED3",
"7. c #3B9AC9",
"8. c #00A1D8",
"9. c #5F9FC4",
"0. c #479AC5",
"q. c #659FC2",
"w. c #6AA2C5",
"e. c #62A1C6",
"r. c #77A7C6",
"t. c #9B9B9B",
"y. c #BB8788",
"u. c #AB999A",
"i. c #BC9899",
"p. c #8899A6",
"a. c #94ABBC",
"s. c #AEAAAA",
"d. c #B9A3A4",
"f. c #B4A8A8",
"g. c #B4B4B4",
"h. c #CA8982",
"j. c #CE9994",
"k. c #D39A9B",
"l. c #C3A29F",
"z. c #C5A7A7",
"x. c #CCB3B3",
"c. c #CFBEBE",
"v. c #D5BAB7",
"b. c #C7C1BF",
"n. c #8AABC3",
"m. c #9AB6CB",
"M. c #A1BBCF",
"N. c #AABDCC",
"B. c #B6C4CE",
"V. c #ADC2D2",
"C. c #B1C3D1",
"Z. c #BFCBD5",
"A. c #C4C4C3",
"S. c #CEC5C5",
"D. c #D4C7C6",
"F. c #D6CBCA",
"G. c #CCD3D8",
"H. c #D1D7DB",
"J. c #D5D9DC",
"K. c #DDDDDC",
"L. c #D7D4D3",
"P. c #E3DEDD",
"I. c #E0E0DF",
"U. c #DCDFE0",
"Y. c #E3E3E2",
"T. c #E9E7E6",
"R. c #E8E8E7",
"E. c #ECECEA",
"W. c #E6E8E7",
"Q. c #F1F1EF",
"!. c #F3F3F2",
"~. c #F8F8F7",
"^. c #FEFEFC",
"/. c #F8F7F6",
/* pixels */
"                          R E E E E R                           ",
"                    U ( ] ] ] ] ] ] ] ] ~ U                     ",
"                ^ ' ] ] ] ! T B B I ~ ' ] ] ' ^                 ",
"            Q ' ] ( b s X %.o.:.:.#.%.X K z ~ ] ' Q             ",
"          ^ ] ` H o.3.q.W.^.!.w.7.Y.^.Q.n.4...G ` ] /           ",
"        / ] Y $.4.8.4.Y.^.^.^.J.C.^.^.^./.0.8.6.O.L ] /         ",
"      ) ] J #.8.8.8.w.^.^.^.^.!.K.^.^.^.^.M.8.8.8.:.H ] )       ",
"      ] L +.8.8.8.6.a.^.^.~.g./.Y.g.Q.^.^.B.6.6.8.8.3.H ]       ",
"    { ! o.8.8.5.m.U.J.^.^.Y.t.g.A.t.A.^.^.K.W.C.7.8.8.>.P (     ",
"    ] o 6.6.w.W.^.^.!.T.^.~.g.f.f.s.Q.^.!.Y.^.^.!.n.6.8.%.'     ",
"  [ P ;.8.1.J.Y.^.^.^.E.P.Y.d.k.k.d U.Y.Y.^.^.^.R.K.a.8.3.n {   ",
"  ] F 6.7.E.^.~.I.I.~.^.^.^.y.-.g 2 ^.^.^.^.Y.K./.^.~.w.8.% ]   ",
"} ] $.8.C.I.I.Y.^.^.T.K.~.^.D., < d.^.^.Y.I.^.^.R.U.K.G.6...` } ",
"[ `  .5.A.K.I.Y.I.I.K.T.^.^.^.Y.S.^.^.^.R.Y.Y.P.Y.Y.I.A.9.:.! [ ",
"[ ! +.r.I.^.^.^.^.^.^.^.^.^.^.^.Y.^.^.^.^.^.^.^.^.^.^.P.M.3.P { ",
"' ! +.M./.I.~.E.I.I.I.Y.^.^.^.^.Y.^.^.^.R.I.K.I.T./.E.E.G.3.P ] ",
"] ~ @.V.!.J.u.Y.^.^.^.^.^.^.^.~.Y.^.^.^.^.^.^.^.!.s.G.R.J.:.B ] ",
"' { | V.^.^.y.1 -.z.D.K.Y.E.!.!.K.!.E.R.U.F.x.y.i p ^.^.H.;.~ ] ",
"{ ] # m.^.^.x.< , , < < < , * * * * , , < < < < < -.~.^.Z.O.{ { ",
"{ ] l <.^.^.P.< 3 < < < < < < < < < 3 < < < < < < c.~.^.m.K ] ] ",
"  ] I @.R.^.^.d < < * : e ; > * , * : 3 3 & < < p /.^.^.,.L ]   ",
"  ] ] @ C.^.^.I., * u t t t t e 3 r t t t t & , c.^.^.H.X.` ]   ",
"  ] ] N *.!.^.^.c.- t t t t t t t t t t t t 3 j.^.^.^.2.J ] ]   ",
"    ] ' o N.^.^.^.c.u t t t t t t t t t t r l.~.^.^.H.+ ` ]     ",
"    ] ] ! X U.^.^.^.T.h.y t t t t t t t g L.^.^.^.!.&.B ] ]     ",
"      ] ] Y &.!.^.^.^.^.R.v.j.h.-.j.v.L.^.^.^.^.^.p.J ] ]       ",
"        ' ' q y.x.x.x.x.x.x.x.x.x.x.x.x.x.x.x.x.u.a ' '         ",
"        ' ' 0 , < < < < < < 6 m m 7 < < < 3 < < < 4 ' '         ",
"          ] V 0 9 9 9 9 5 . j c j j 8 5 9 9 9 9 0 n ]           ",
"              ] ] ] ] ] ' q A Z B D k ' ] ] ] ] ]               ",
"                ] ] ] ] ] b Z Z N D z D ] ] ] ]                 ",
"                    ] ] ] ' h j x l ( ' ] ]                     "
};
